<?xml version="1.0" encoding="iso-8859-1"?>
<!-- Uploaded to: SVG Repo, www.svgrepo.com, Generator: SVG Repo Mixer Tools -->
<svg height="800px" width="800px" version="1.1" id="Layer_1" xmlns="http://www.w3.org/2000/svg" xmlns:xlink="http://www.w3.org/1999/xlink" 
	 viewBox="0 0 512 512" xml:space="preserve">
<g transform="translate(1 1)">
	<path style="fill:#FD9808;" d="M238.107,200.387l-4.267-5.12c-5.973-5.973-9.387-12.8-11.093-20.48L215.92,127
		c-0.853,0-2.56,0-3.413,0c-9.387,0-17.92-1.707-25.6-5.973v142.507l26.453,25.6l24.747-25.6V255l-17.067-17.067l17.067-17.067
		V200.387z"/>
	<path style="fill:#FFDD09;" d="M213.36,110.787c-2.56-14.507,9.387-26.453,23.893-23.893l29.867,4.267
		c3.413-7.68,5.12-15.36,5.12-23.893c0-33.28-26.453-59.733-59.733-59.733s-59.733,26.453-59.733,59.733S179.227,127,212.507,127
		c0.853,0,2.56,0,3.413,0L213.36,110.787z"/>
	<path style="fill:#1CD759;" d="M405.36,207.213l-70.827,70.827c-5.12,5.12-13.653,4.267-19.627-0.853l-81.067-81.92
		c-5.973-5.973-9.387-12.8-11.093-20.48l-9.387-64c-2.56-14.507,9.387-26.453,23.893-23.893l64,9.387
		c7.68,0.853,15.36,5.12,20.48,11.093L402.8,188.44C409.627,193.56,410.48,202.093,405.36,207.213"/>
	<polygon style="fill:#FD9808;" points="7.707,502.467 50.374,502.467 50.374,297.667 7.707,297.667 	"/>
	<path style="fill:#FFDD09;" d="M496.667,342.04c6.827-5.12,7.68-15.36,2.56-22.187c-11.093-14.507-19.627-18.773-56.32,0.853
		l-74.24,45.227c-23.04,11.947-81.92,8.533-107.52,8.533c0,0,60.587,4.267,36.693-31.573c-11.947-17.92-32.427-28.16-54.613-28.16
		h-33.28l0,0c-19.627,0-38.4-5.973-53.76-17.067c-36.693-28.16-105.813,25.6-105.813,25.6v153.6H169.84l0,0
		c17.067,0,34.133-1.707,51.2-4.267l110.933-17.067c3.413,0,7.68-0.853,11.093-0.853l0,0c9.387-0.853,17.067-5.973,23.893-11.947
		L496.667,342.04z"/>
	<path d="M169.84,485.4h-128V319l3.413-2.56c3.413-2.56,75.093-57.173,116.053-26.453c13.653,10.24,30.72,15.36,48.64,15.36h33.28
		c24.747,0,47.787,11.947,61.44,31.573c7.68,11.093,9.387,20.48,5.12,28.16c21.333,0,44.373-1.707,54.613-7.68l73.387-45.227
		c37.547-19.627,52.907-19.627,68.267,0.853c7.68,10.24,5.973,25.6-4.267,34.133l0,0l-128.853,102.4
		c-8.533,7.68-17.92,12.8-28.16,14.507c-3.413,0.853-7.68,1.707-11.947,1.707L221.894,482.84
		C204.827,483.693,186.907,485.4,169.84,485.4z M58.907,468.333H169.84c16.213,0,33.28-0.853,49.493-3.413l112.64-17.067
		c3.413,0,5.973,0,9.387-0.853c7.68-0.853,14.507-4.267,19.627-10.24l0.853-0.853l129.707-100.693
		c3.413-2.56,3.413-7.68,1.707-10.24c-6.827-10.24-10.24-14.507-46.08,3.413l-73.387,45.227
		c-19.627,10.24-57.173,11.093-97.28,10.24c-1.707,0-3.413,0-4.267,0c-5.12,0-8.533,0-11.093,0L262,366.787c2.56,0,5.973,0,9.387,0
		c11.093-0.853,21.333-2.56,23.893-6.827c0.853-1.707,0-6.827-3.413-11.947c-11.093-16.213-29.013-24.747-48.64-24.747h-33.28
		c-22.187,0-42.667-6.827-58.88-18.773c-23.893-18.773-71.68,8.533-92.16,23.04C58.907,327.533,58.907,468.333,58.907,468.333z
		 M496.667,342.04L496.667,342.04L496.667,342.04z"/>
	<path d="M58.907,511H-0.826V289.133h59.733V511z M16.24,493.933h25.6V306.2h-25.6V493.933z"/>
	<path d="M148.507,409.453c-5.12,0-8.533-3.413-8.533-8.533c0-21.333,16.213-34.133,42.667-34.133h82.773
		c5.12,0,8.533,3.413,8.533,8.533s-3.413,8.533-8.533,8.533H182.64c-25.6,0-25.6,12.8-25.6,17.067
		C157.04,406.04,153.627,409.453,148.507,409.453z"/>
	<path d="M326,289.987c-5.973,0-11.947-2.56-17.067-6.827l-81.067-81.067c-6.827-6.827-11.947-16.213-12.8-25.6l-9.387-64
		c-1.707-9.387,1.707-19.627,8.533-25.6c6.827-6.827,16.213-9.387,25.6-8.533l64,9.387c9.387,1.707,18.773,5.973,25.6,12.8
		l81.067,81.067c4.267,4.267,6.827,9.387,6.827,15.36c0,5.973-1.707,11.947-5.973,16.213l-70.827,70.827
		C336.24,288.28,331.12,289.987,326,289.987z M233.84,94.573c-3.413,0-6.827,0.853-8.533,3.413c-2.56,2.56-4.267,6.827-3.413,11.093
		l9.387,64c0.853,5.973,4.267,11.947,8.533,16.213l81.067,81.067c2.56,2.56,5.973,2.56,7.68,0.853l70.827-70.827
		c0.853-0.853,0.853-1.707,0.853-2.56c0-1.707-0.853-3.413-1.707-4.267l-81.067-81.067c-4.267-4.267-10.24-7.68-16.213-8.533
		l-64-9.387C235.547,94.573,234.694,94.573,233.84,94.573z"/>
	<path d="M323.44,246.467c-2.56,0-4.267-0.853-5.973-2.56c-3.413-3.413-3.413-8.533,0-11.947l25.6-25.6
		c3.413-3.413,8.533-3.413,11.947,0c3.413,3.413,3.413,8.533,0,11.947l-25.6,25.6C327.707,245.613,326,246.467,323.44,246.467z"/>
	<path d="M297.84,220.867c-2.56,0-4.267-0.853-5.973-2.56c-3.413-3.413-3.413-8.533,0-11.947l25.6-25.6
		c3.413-3.413,8.533-3.413,11.947,0c3.413,3.413,3.413,8.533,0,11.947l-25.6,25.6C302.107,220.013,300.4,220.867,297.84,220.867z"/>
	<path d="M272.24,144.067c-37.547,0-68.267-30.72-68.267-68.267c0-10.24,2.56-20.48,6.827-29.013
		c1.707-4.267,6.827-5.973,11.093-4.267s5.973,6.827,4.267,11.093c-3.413,6.827-5.12,14.507-5.12,22.187
		c0,28.16,23.04,51.2,51.2,51.2c5.12,0,8.533,3.413,8.533,8.533S277.36,144.067,272.24,144.067z"/>
	<path d="M212.507,135.533c-37.547,0-68.267-30.72-68.267-68.267S174.96-1,212.507-1s68.267,30.72,68.267,68.267
		c0,9.387-1.707,17.92-5.12,26.453c-1.707,3.413-5.12,5.973-9.387,5.12L236.4,94.573c-4.267-0.853-8.533,0.853-11.093,3.413
		c-2.56,2.56-4.267,6.827-3.413,11.093l0,0l2.56,16.213c0,2.56,0,5.12-1.707,6.827c-1.707,1.707-4.267,3.413-6.827,3.413h-0.853
		C214.214,135.533,213.36,135.533,212.507,135.533z M212.507,16.067c-28.16,0-51.2,23.04-51.2,51.2
		c0,25.6,19.627,47.787,44.373,50.347l-0.853-5.973c-1.707-9.387,1.707-19.627,8.533-25.6c6.827-6.827,16.213-9.387,25.6-8.533
		L262,80.92c0.853-4.267,1.707-8.533,1.707-13.653C263.707,39.107,240.667,16.067,212.507,16.067z"/>
	<path d="M323.44,115.053c-2.56,0-4.267-0.853-5.973-2.56c-5.12-5.12-10.24-7.68-16.213-8.533l-34.133-5.12
		c-2.56,0-5.12-1.707-5.973-4.267c-1.707-2.56-1.707-5.12,0-7.68c0.853-5.973,2.56-12.8,2.56-19.627
		c0-15.36-6.827-29.867-19.627-40.107c-2.56-1.707-3.413-5.12-3.413-7.68c0.853-3.413,2.56-5.973,5.973-6.827
		c8.533-3.413,17.067-5.12,25.6-5.12c37.547,0,68.267,30.72,68.267,68.267c0,12.8-3.413,24.747-10.24,35.84
		C328.56,114.2,326.854,115.053,323.44,115.053L323.44,115.053z M279.067,83.48l24.747,3.413c5.973,0.853,11.947,3.413,17.067,5.973
		c1.707-5.12,2.56-11.093,2.56-17.067c0-28.16-23.04-51.2-51.2-51.2c-1.707,0-4.267,0-5.973,0
		c9.387,11.947,14.507,27.307,14.507,42.667C280.774,73.24,279.92,78.36,279.067,83.48z"/>
	<path d="M213.36,297.667c-2.56,0-4.267-0.853-5.973-2.56l-26.453-25.6c-1.707-1.707-2.56-3.413-2.56-5.973V121.027
		c0-2.56,1.707-5.973,4.267-6.827c2.56-1.707,5.973-1.707,8.533-0.853c7.68,3.413,15.36,5.12,23.893,5.12h0.853
		c4.267,0,8.533,2.56,8.533,7.68l6.827,47.787c0.853,5.973,4.267,11.947,8.533,16.213l4.267,4.267
		c1.707,1.707,2.56,3.413,2.56,5.973v20.48c0,2.56-0.853,4.267-2.56,5.973l-11.093,11.093l11.093,11.093
		c1.707,1.707,2.56,3.413,2.56,5.973v8.533c0,2.56-0.853,4.267-2.56,5.973l-24.747,25.6
		C217.627,296.813,215.067,297.667,213.36,297.667L213.36,297.667z M195.44,260.12l17.067,17.067l17.067-17.067v-1.707
		l-14.507-14.507c-3.413-3.413-3.413-8.533,0-11.947l14.507-14.507V203.8l-1.707-1.707c-6.827-6.827-11.947-16.213-12.8-25.6
		l-6.827-40.96c-4.267,0-8.533-0.853-12.8-1.707V260.12z"/>
</g>
</svg>